<svg width="281" height="274" viewBox="0 0 281 274" fill="none" xmlns="http://www.w3.org/2000/svg">
<g clip-path="url(#clip0_214_5975)">
<path d="M178.255 61.4676H102.808C101.088 61.4697 99.4399 62.1536 98.2242 63.3694C97.0085 64.5851 96.3245 66.2334 96.3224 67.9527V235.636L95.4578 235.9L76.9492 241.568C76.072 241.836 75.1246 241.744 74.3148 241.314C73.5051 240.883 72.8992 240.149 72.6302 239.272L17.5757 59.4399C17.3078 58.5627 17.3991 57.6151 17.8296 56.8052C18.2601 55.9953 18.9945 55.3895 19.8715 55.1208L48.3931 46.3875L131.078 21.0783L159.6 12.345C160.034 12.2114 160.49 12.1647 160.942 12.2076C161.394 12.2505 161.834 12.3821 162.235 12.5949C162.636 12.8078 162.991 13.0976 163.28 13.4479C163.569 13.7982 163.786 14.2021 163.919 14.6364L177.992 60.6029L178.255 61.4676Z" fill="#E6E6E6"/>
<path d="M194.719 60.6029L177.758 5.20262C177.476 4.27955 177.015 3.42113 176.401 2.67641C175.787 1.93169 175.032 1.31527 174.179 0.862379C173.327 0.409483 172.394 0.128982 171.433 0.036915C170.472 -0.0551516 169.503 0.0430204 168.58 0.325811L128.48 12.6L45.7991 37.9136L5.69946 50.1921C3.83664 50.7641 2.27688 52.0518 1.36253 53.7727C0.448193 55.4935 0.253974 57.5068 0.822517 59.3707L58.7909 248.706C59.2528 250.211 60.1847 251.527 61.4499 252.464C62.7151 253.4 64.247 253.906 65.8209 253.907C66.5493 253.907 67.2736 253.798 67.9695 253.583L95.4578 245.169L96.3225 244.901V243.998L95.4578 244.262L67.7145 252.757C66.0702 253.258 64.2943 253.087 62.7762 252.28C61.2581 251.474 60.1219 250.098 59.6167 248.455L1.65279 59.1156C1.4025 58.3015 1.31527 57.446 1.39609 56.5981C1.4769 55.7502 1.72417 54.9265 2.12375 54.1744C2.52333 53.4222 3.06737 52.7562 3.7247 52.2145C4.38203 51.6729 5.13974 51.2662 5.95446 51.0179L46.0541 38.7394L128.735 13.4301L168.835 1.15159C169.453 0.963004 170.095 0.866847 170.741 0.866245C172.128 0.869358 173.477 1.31638 174.591 2.14184C175.705 2.96729 176.526 4.1278 176.933 5.45339L193.815 60.6029L194.084 61.4676H194.983L194.719 60.6029Z" fill="#35383F" fill-opacity="0.4"/>
<path d="M53.54 55.2621C52.7067 55.2615 51.8955 54.9939 51.2254 54.4985C50.5554 54.0031 50.0618 53.3061 49.8169 52.5095L44.2482 34.3202C44.0986 33.8316 44.0466 33.3183 44.0954 32.8096C44.1441 32.301 44.2926 31.8069 44.5324 31.3556C44.7721 30.9043 45.0984 30.5047 45.4926 30.1795C45.8868 29.8544 46.3412 29.6101 46.8298 29.4605L122.896 6.17301C123.882 5.87189 124.948 5.97459 125.859 6.45855C126.77 6.94251 127.452 7.7682 127.755 8.75439L133.324 26.944C133.625 27.9307 133.522 28.9966 133.038 29.9077C132.554 30.8187 131.729 31.5007 130.743 31.8038L54.6767 55.0914C54.3084 55.2044 53.9253 55.262 53.54 55.2621Z" fill="url(#paint0_linear_214_5975)"/>
<path d="M82.7113 19.4357C87.4868 19.4357 91.3581 15.5644 91.3581 10.7889C91.3581 6.01341 87.4868 2.14209 82.7113 2.14209C77.9358 2.14209 74.0645 6.01341 74.0645 10.7889C74.0645 15.5644 77.9358 19.4357 82.7113 19.4357Z" fill="url(#paint1_linear_214_5975)"/>
<path d="M82.7113 16.2644C85.7353 16.2644 88.1867 13.8129 88.1867 10.7889C88.1867 7.76492 85.7353 5.31348 82.7113 5.31348C79.6873 5.31348 77.2358 7.76492 77.2358 10.7889C77.2358 13.8129 79.6873 16.2644 82.7113 16.2644Z" fill="#35383F"/>
<path d="M261.045 251.698H114.913C113.939 251.697 113.005 251.309 112.316 250.62C111.627 249.931 111.24 248.997 111.239 248.023V72.9247C111.24 71.9503 111.627 71.0163 112.316 70.3273C113.005 69.6384 113.939 69.2508 114.913 69.2498H261.045C262.019 69.2509 262.953 69.6384 263.642 70.3274C264.331 71.0163 264.719 71.9504 264.72 72.9247V248.023C264.719 248.997 264.331 249.931 263.642 250.62C262.953 251.309 262.019 251.697 261.045 251.698Z" fill="#E6E6E6"/>
<path d="M193.815 60.603H102.808C100.859 60.6058 98.9913 61.381 97.6135 62.7588C96.2358 64.1365 95.4605 66.0044 95.4578 67.9528V244.262L96.3224 243.998V67.9528C96.3245 66.2335 97.0085 64.5852 98.2242 63.3695C99.4399 62.1537 101.088 61.4698 102.808 61.4677H194.084L193.815 60.603ZM273.15 60.603H102.808C100.859 60.6058 98.9913 61.381 97.6135 62.7588C96.2358 64.1365 95.4605 66.0044 95.4578 67.9528V265.965C95.4605 267.914 96.2358 269.782 97.6135 271.159C98.9913 272.537 100.859 273.312 102.808 273.315H273.15C275.099 273.312 276.966 272.537 278.344 271.159C279.722 269.782 280.497 267.914 280.5 265.965V67.9528C280.497 66.0044 279.722 64.1365 278.344 62.7588C276.966 61.381 275.099 60.6058 273.15 60.603ZM279.635 265.965C279.633 267.685 278.949 269.333 277.733 270.549C276.518 271.764 274.869 272.448 273.15 272.45H102.808C101.088 272.448 99.4399 271.764 98.2242 270.549C97.0085 269.333 96.3245 267.685 96.3224 265.965V67.9528C96.3245 66.2335 97.0085 64.5852 98.2242 63.3695C99.4399 62.1537 101.088 61.4698 102.808 61.4677H273.15C274.869 61.4698 276.518 62.1537 277.733 63.3695C278.949 64.5852 279.633 66.2335 279.635 67.9528V265.965Z" fill="#35383F" fill-opacity="0.4"/>
<path d="M227.754 79.626H148.204C147.172 79.6248 146.183 79.2145 145.453 78.485C144.724 77.7556 144.314 76.7665 144.312 75.7349V56.7119C144.314 55.6803 144.724 54.6912 145.453 53.9618C146.183 53.2323 147.172 52.822 148.204 52.8208H227.754C228.786 52.822 229.775 53.2323 230.505 53.9618C231.234 54.6912 231.644 55.6803 231.645 56.7119V75.7349C231.644 76.7665 231.234 77.7556 230.505 78.485C229.775 79.2145 228.786 79.6248 227.754 79.626Z" fill="url(#paint2_linear_214_5975)"/>
<path d="M187.979 54.1179C192.754 54.1179 196.626 50.2466 196.626 45.471C196.626 40.6955 192.754 36.8242 187.979 36.8242C183.203 36.8242 179.332 40.6955 179.332 45.471C179.332 50.2466 183.203 54.1179 187.979 54.1179Z" fill="url(#paint3_linear_214_5975)"/>
<path d="M187.979 50.7378C190.888 50.7378 193.246 48.3798 193.246 45.4711C193.246 42.5623 190.888 40.2043 187.979 40.2043C185.07 40.2043 182.712 42.5623 182.712 45.4711C182.712 48.3798 185.07 50.7378 187.979 50.7378Z" fill="#35383F"/>
</g>
<defs>
<linearGradient id="paint0_linear_214_5975" x1="133.493" y1="55.2621" x2="43.1716" y2="7.7249" gradientUnits="userSpaceOnUse">
<stop stop-color="#2595CD"/>
<stop offset="1" stop-color="#78BEE1"/>
</linearGradient>
<linearGradient id="paint1_linear_214_5975" x1="91.3581" y1="19.4357" x2="70.7802" y2="13.4694" gradientUnits="userSpaceOnUse">
<stop stop-color="#2595CD"/>
<stop offset="1" stop-color="#78BEE1"/>
</linearGradient>
<linearGradient id="paint2_linear_214_5975" x1="231.645" y1="79.626" x2="172.114" y2="23.39" gradientUnits="userSpaceOnUse">
<stop stop-color="#2595CD"/>
<stop offset="1" stop-color="#78BEE1"/>
</linearGradient>
<linearGradient id="paint3_linear_214_5975" x1="196.626" y1="54.1179" x2="176.048" y2="48.1515" gradientUnits="userSpaceOnUse">
<stop stop-color="#2595CD"/>
<stop offset="1" stop-color="#78BEE1"/>
</linearGradient>
<clipPath id="clip0_214_5975">
<rect width="280" height="273.315" fill="white" transform="translate(0.5)"/>
</clipPath>
</defs>
</svg>
