<svg width="21" height="22" viewBox="0 0 21 22" fill="none" xmlns="http://www.w3.org/2000/svg">
<g clip-path="url(#clip0_2_5520)">
<path d="M10.7098 9.1554V13.0843H16.1697C15.9299 14.3478 15.2105 15.4177 14.1314 16.137L17.4239 18.6918C19.3423 16.9211 20.449 14.3202 20.449 11.2306C20.449 10.5113 20.3845 9.81948 20.2645 9.15551L10.7098 9.1554Z" fill="#4285F4"/>
<path d="M5.02431 12.931L4.28172 13.4995L1.6532 15.5469C3.32251 18.8578 6.7439 21.1451 10.7096 21.1451C13.4487 21.1451 15.7452 20.2413 17.4237 18.6919L14.1312 16.1372C13.2274 16.7459 12.0746 17.1148 10.7096 17.1148C8.07195 17.1148 5.83089 15.3348 5.02846 12.9369L5.02431 12.931Z" fill="#34A853"/>
<path d="M1.65315 6.45325C0.961478 7.81816 0.564941 9.35838 0.564941 11C0.564941 12.6416 0.961478 14.1818 1.65315 15.5468C1.65315 15.5559 5.02873 12.9275 5.02873 12.9275C4.82583 12.3188 4.7059 11.6732 4.7059 10.9999C4.7059 10.3265 4.82583 9.68099 5.02873 9.07229L1.65315 6.45325Z" fill="#FBBC05"/>
<path d="M10.7099 4.89454C12.204 4.89454 13.532 5.411 14.5926 6.40707L17.4978 3.50194C15.7362 1.86032 13.449 0.85498 10.7099 0.85498C6.7441 0.85498 3.32251 3.13299 1.6532 6.45319L5.02868 9.07246C5.83101 6.67452 8.07216 4.89454 10.7099 4.89454Z" fill="#EA4335"/>
</g>
<defs>
<clipPath id="clip0_2_5520">
<rect width="20.29" height="20.29" fill="white" transform="translate(0.564941 0.85498)"/>
</clipPath>
</defs>
</svg>
